{
  "header": {
    "PPQ": 384,
    "bpm": 120,
    "timeSignature": [
      4,
      4
    ],
    "name": "GS/RESET"
  },
  "tempo": [
    {
      "absoluteTime": 0,
      "seconds": 0,
      "bpm": 120
    }
  ],
  "timeSignature": [
    {
      "absoluteTime": 0,
      "seconds": 0,
      "numerator": 4,
      "denominator": 2,
      "click": 24,
      "notesQ": 8
    }
  ],
  "startTime": 0,
  "duration": 86.62499999999994,
  "tracks": [
    {
      "startTime": 0,
      "duration": 0,
      "length": 0,
      "notes": [],
      "controlChanges": {},
      "id": 0
    },
    {
      "startTime": 2.9322916666666665,
      "duration": 86.62499999999994,
      "length": 286,
      "notes": [
        {
          "name": "G3",
          "midi": 55,
          "time": 2.9322916666666665,
          "velocity": 0.6377952755905512,
          "duration": 1.1015624999999996
        },
        {
          "name": "G4",
          "midi": 67,
          "time": 2.9322916666666665,
          "velocity": 0.7559055118110236,
          "duration": 1.2109374999999996
        },
        {
          "name": "D#4",
          "midi": 63,
          "time": 2.9322916666666665,
          "velocity": 0.5433070866141733,
          "duration": 1.2864583333333326
        },
        {
          "name": "C4",
          "midi": 60,
          "time": 2.9401041666666665,
          "velocity": 0.5984251968503937,
          "duration": 1.0260416666666665
        },
        {
          "name": "C3",
          "midi": 48,
          "time": 2.9453125,
          "velocity": 0.5039370078740157,
          "duration": 1.1796874999999991
        },
        {
          "name": "C2",
          "midi": 36,
          "time": 2.9557291666666665,
          "velocity": 0.4881889763779528,
          "duration": 1.2552083333333326
        },
        {
          "name": "G#4",
          "midi": 68,
          "time": 4.468749999999999,
          "velocity": 0.7637795275590551,
          "duration": 1.338541666666667
        },
        {
          "name": "G#3",
          "midi": 56,
          "time": 4.471354166666666,
          "velocity": 0.6771653543307087,
          "duration": 1.1328125
        },
        {
          "name": "D#4",
          "midi": 63,
          "time": 4.486979166666666,
          "velocity": 0.6456692913385826,
          "duration": 1.03125
        },
        {
          "name": "F2",
          "midi": 41,
          "time": 4.489583333333333,
          "velocity": 0.5354330708661418,
          "duration": 1.260416666666666
        },
        {
          "name": "C4",
          "midi": 60,
          "time": 4.489583333333333,
          "velocity": 0.6850393700787402,
          "duration": 0.8515625
        },
        {
          "name": "F1",
          "midi": 29,
          "time": 4.494791666666666,
          "velocity": 0.5905511811023622,
          "duration": 1.223958333333333
        },
        {
          "name": "G4",
          "midi": 67,
          "time": 5.924479166666666,
          "velocity": 0.7952755905511811,
          "duration": 1.122395833333333
        },
        {
          "name": "G3",
          "midi": 55,
          "time": 5.927083333333333,
          "velocity": 0.6062992125984252,
          "duration": 1.255208333333333
        },
        {
          "name": "D#4",
          "midi": 63,
          "time": 5.932291666666666,
          "velocity": 0.5748031496062992,
          "duration": 1.208333333333333
        },
        {
          "name": "G2",
          "midi": 43,
          "time": 5.937499999999999,
          "velocity": 0.5669291338582677,
          "duration": 1.3125000000000009
        },
        {
          "name": "B3",
          "midi": 59,
          "time": 5.937499999999999,
          "velocity": 0.5039370078740157,
          "duration": 1.125
        },
        {
          "name": "G1",
          "midi": 31,
          "time": 5.945312499999999,
          "velocity": 0.5905511811023622,
          "duration": 1.197916666666667
        },
        {
          "name": "F4",
          "midi": 65,
          "time": 7.223958333333333,
          "velocity": 0.6929133858267716,
          "duration": 0.08333333333333304
        },
        {
          "name": "D4",
          "midi": 62,
          "time": 7.2265625,
          "velocity": 0.6377952755905512,
          "duration": 0.04427083333333304
        },
        {
          "name": "D#4",
          "midi": 63,
          "time": 7.578124999999999,
          "velocity": 0.6220472440944882,
          "duration": 1.3281250000000027
        },
        {
          "name": "D#3",
          "midi": 51,
          "time": 7.585937499999999,
          "velocity": 0.5669291338582677,
          "duration": 1.3151041666666687
        },
        {
          "name": "C3",
          "midi": 48,
          "time": 7.593749999999999,
          "velocity": 0.4645669291338583,
          "duration": 1.2864583333333348
        },
        {
          "name": "C4",
          "midi": 60,
          "time": 7.596354166666666,
          "velocity": 0.5039370078740157,
          "duration": 0.9505208333333339
        },
        {
          "name": "G3",
          "midi": 55,
          "time": 7.598958333333333,
          "velocity": 0.5118110236220472,
          "duration": 1.182291666666667
        },
        {
          "name": "C2",
          "midi": 36,
          "time": 7.609375,
          "velocity": 0.3779527559055118,
          "duration": 1.3437500000000018
        },
        {
          "name": "G2",
          "midi": 43,
          "time": 7.630208333333333,
          "velocity": 0.30708661417322836,
          "duration": 1.2552083333333348
        },
        {
          "name": "D#4",
          "midi": 63,
          "time": 9.333333333333336,
          "velocity": 0.7086614173228346,
          "duration": 1.0625000000000018
        },
        {
          "name": "D#3",
          "midi": 51,
          "time": 9.33854166666667,
          "velocity": 0.6299212598425197,
          "duration": 0.9791666666666679
        },
        {
          "name": "G#2",
          "midi": 44,
          "time": 9.343750000000004,
          "velocity": 0.5669291338582677,
          "duration": 0.9270833333333339
        },
        {
          "name": "G#3",
          "midi": 56,
          "time": 9.34635416666667,
          "velocity": 0.5905511811023622,
          "duration": 0.9192708333333339
        },
        {
          "name": "C4",
          "midi": 60,
          "time": 9.348958333333336,
          "velocity": 0.6771653543307087,
          "duration": 0.9531250000000018
        },
        {
          "name": "G#1",
          "midi": 32,
          "time": 9.356770833333336,
          "velocity": 0.5433070866141733,
          "duration": 1.2708333333333357
        },
        {
          "name": "F4",
          "midi": 65,
          "time": 10.768229166666671,
          "velocity": 0.7874015748031497,
          "duration": 0.8802083333333339
        },
        {
          "name": "F3",
          "midi": 53,
          "time": 10.770833333333337,
          "velocity": 0.6220472440944882,
          "duration": 0.7317708333333339
        },
        {
          "name": "G#3",
          "midi": 56,
          "time": 10.770833333333337,
          "velocity": 0.5984251968503937,
          "duration": 1.1328125000000018
        },
        {
          "name": "C#4",
          "midi": 61,
          "time": 10.778645833333337,
          "velocity": 0.6299212598425197,
          "duration": 1.0234375000000018
        },
        {
          "name": "C#2",
          "midi": 37,
          "time": 10.789062500000004,
          "velocity": 0.6141732283464567,
          "duration": 0.9895833333333357
        },
        {
          "name": "C#1",
          "midi": 25,
          "time": 10.794270833333337,
          "velocity": 0.6850393700787402,
          "duration": 1.3593750000000018
        },
        {
          "name": "D#4",
          "midi": 63,
          "time": 12.250000000000005,
          "velocity": 0.6692913385826772,
          "duration": 0.9765625
        },
        {
          "name": "D#3",
          "midi": 51,
          "time": 12.257812500000005,
          "velocity": 0.3937007874015748,
          "duration": 1.1458333333333321
        },
        {
          "name": "C#3",
          "midi": 49,
          "time": 12.265625000000005,
          "velocity": 0.6377952755905512,
          "duration": 1.393229166666666
        },
        {
          "name": "D#2",
          "midi": 39,
          "time": 12.265625000000005,
          "velocity": 0.5433070866141733,
          "duration": 1.7343749999999964
        },
        {
          "name": "C4",
          "midi": 60,
          "time": 12.268229166666671,
          "velocity": 0.5984251968503937,
          "duration": 1.1328125
        },
        {
          "name": "D#1",
          "midi": 27,
          "time": 12.278645833333337,
          "velocity": 0.48031496062992124,
          "duration": 1.005208333333334
        },
        {
          "name": "G3",
          "midi": 55,
          "time": 12.289062500000004,
          "velocity": 0.49606299212598426,
          "duration": 0.9557291666666679
        },
        {
          "name": "C#4",
          "midi": 61,
          "time": 13.557291666666671,
          "velocity": 0.5669291338582677,
          "duration": 0.1796875
        },
        {
          "name": "A#3",
          "midi": 58,
          "time": 13.570312500000005,
          "velocity": 0.49606299212598426,
          "duration": 0.08854166666666607
        },
        {
          "name": "D#3",
          "midi": 51,
          "time": 13.940104166666671,
          "velocity": 0.4645669291338583,
          "duration": 1.3098958333333304
        },
        {
          "name": "C3",
          "midi": 48,
          "time": 13.942708333333337,
          "velocity": 0.4330708661417323,
          "duration": 1.2786458333333304
        },
        {
          "name": "G#3",
          "midi": 56,
          "time": 13.950520833333337,
          "velocity": 0.4409448818897638,
          "duration": 1.3619791666666643
        },
        {
          "name": "G#2",
          "midi": 44,
          "time": 13.953125000000004,
          "velocity": 0.2992125984251969,
          "duration": 1.455729166666666
        },
        {
          "name": "C4",
          "midi": 60,
          "time": 13.95572916666667,
          "velocity": 0.5826771653543307,
          "duration": 1.369791666666666
        },
        {
          "name": "G#1",
          "midi": 32,
          "time": 13.958333333333336,
          "velocity": 0.33858267716535434,
          "duration": 1.5260416666666679
        },
        {
          "name": "D4",
          "midi": 62,
          "time": 15.65885416666667,
          "velocity": 0.7480314960629921,
          "duration": 1.052083333333334
        },
        {
          "name": "F3",
          "midi": 53,
          "time": 15.661458333333336,
          "velocity": 0.5905511811023622,
          "duration": 0.875
        },
        {
          "name": "D3",
          "midi": 50,
          "time": 15.66666666666667,
          "velocity": 0.6929133858267716,
          "duration": 1.033854166666666
        },
        {
          "name": "B3",
          "midi": 59,
          "time": 15.669270833333336,
          "velocity": 0.5984251968503937,
          "duration": 1.0078125
        },
        {
          "name": "G2",
          "midi": 43,
          "time": 15.677083333333336,
          "velocity": 0.5826771653543307,
          "duration": 0.8984375
        },
        {
          "name": "G1",
          "midi": 31,
          "time": 15.677083333333336,
          "velocity": 0.5905511811023622,
          "duration": 1.0677083333333357
        },
        {
          "name": "E4",
          "midi": 64,
          "time": 16.91666666666667,
          "velocity": 0.8031496062992126,
          "duration": 1.078125
        },
        {
          "name": "C4",
          "midi": 60,
          "time": 16.921875000000004,
          "velocity": 0.6299212598425197,
          "duration": 1.03125
        },
        {
          "name": "C1",
          "midi": 24,
          "time": 16.92447916666667,
          "velocity": 0.7244094488188977,
          "duration": 0.9505208333333321
        },
        {
          "name": "E3",
          "midi": 52,
          "time": 16.92708333333334,
          "velocity": 0.6850393700787402,
          "duration": 0.8880208333333321
        },
        {
          "name": "G3",
          "midi": 55,
          "time": 16.92708333333334,
          "velocity": 0.5748031496062992,
          "duration": 0.9427083333333321
        },
        {
          "name": "C2",
          "midi": 36,
          "time": 16.92708333333334,
          "velocity": 0.6535433070866141,
          "duration": 1.0494791666666643
        },
        {
          "name": "A#3",
          "midi": 58,
          "time": 16.93229166666667,
          "velocity": 0.6692913385826772,
          "duration": 0.9947916666666643
        },
        {
          "name": "G4",
          "midi": 67,
          "time": 18.27864583333334,
          "velocity": 0.8503937007874016,
          "duration": 1.4192708333333321
        },
        {
          "name": "G#3",
          "midi": 56,
          "time": 18.28385416666667,
          "velocity": 0.6929133858267716,
          "duration": 1.1692708333333321
        },
        {
          "name": "C4",
          "midi": 60,
          "time": 18.29166666666667,
          "velocity": 0.7007874015748031,
          "duration": 0.9401041666666679
        },
        {
          "name": "F1",
          "midi": 29,
          "time": 18.29166666666667,
          "velocity": 0.6692913385826772,
          "duration": 1
        },
        {
          "name": "F2",
          "midi": 41,
          "time": 18.29427083333334,
          "velocity": 0.6062992125984252,
          "duration": 1.2005208333333321
        },
        {
          "name": "F4",
          "midi": 65,
          "time": 19.625000000000004,
          "velocity": 0.6929133858267716,
          "duration": 0.35416666666667496
        },
        {
          "name": "D#4",
          "midi": 63,
          "time": 19.94270833333334,
          "velocity": 0.6614173228346457,
          "duration": 1.3593750000000036
        },
        {
          "name": "G3",
          "midi": 55,
          "time": 19.953125000000007,
          "velocity": 0.5039370078740157,
          "duration": 1.1041666666666679
        },
        {
          "name": "C2",
          "midi": 36,
          "time": 19.963541666666675,
          "velocity": 0.4566929133858268,
          "duration": 1.21875
        },
        {
          "name": "C3",
          "midi": 48,
          "time": 19.966145833333343,
          "velocity": 0.4251968503937008,
          "duration": 1.2708333333333321
        },
        {
          "name": "C4",
          "midi": 60,
          "time": 19.96875000000001,
          "velocity": 0.49606299212598426,
          "duration": 0.9322916666666643
        },
        {
          "name": "D4",
          "midi": 62,
          "time": 21.401041666666675,
          "velocity": 0.7637795275590551,
          "duration": 1.1510416666666679
        },
        {
          "name": "F#3",
          "midi": 54,
          "time": 21.401041666666675,
          "velocity": 0.6535433070866141,
          "duration": 1.0000000000000036
        },
        {
          "name": "C4",
          "midi": 60,
          "time": 21.411458333333343,
          "velocity": 0.6929133858267716,
          "duration": 0.8958333333333357
        },
        {
          "name": "D3",
          "midi": 50,
          "time": 21.411458333333343,
          "velocity": 0.6456692913385826,
          "duration": 0.8333333333333357
        },
        {
          "name": "D2",
          "midi": 38,
          "time": 21.416666666666675,
          "velocity": 0.6220472440944882,
          "duration": 1.0364583333333357
        },
        {
          "name": "A2",
          "midi": 45,
          "time": 21.424479166666675,
          "velocity": 0.6141732283464567,
          "duration": 0.9739583333333357
        },
        {
          "name": "G4",
          "midi": 67,
          "time": 22.716145833333343,
          "velocity": 0.8346456692913385,
          "duration": 1.0182291666666679
        },
        {
          "name": "G3",
          "midi": 55,
          "time": 22.723958333333343,
          "velocity": 0.6929133858267716,
          "duration": 0.6875
        },
        {
          "name": "D4",
          "midi": 62,
          "time": 22.72656250000001,
          "velocity": 0.6614173228346457,
          "duration": 0.8854166666666679
        },
        {
          "name": "B3",
          "midi": 59,
          "time": 22.72656250000001,
          "velocity": 0.6377952755905512,
          "duration": 0.78125
        },
        {
          "name": "G1",
          "midi": 31,
          "time": 22.73437500000001,
          "velocity": 0.7007874015748031,
          "duration": 0.8463541666666679
        },
        {
          "name": "G2",
          "midi": 43,
          "time": 22.73697916666668,
          "velocity": 0.6614173228346457,
          "duration": 0.7161458333333321
        },
        {
          "name": "B4",
          "midi": 71,
          "time": 24.07031250000001,
          "velocity": 0.6771653543307087,
          "duration": 1.0078125
        },
        {
          "name": "F#4",
          "midi": 66,
          "time": 24.07812500000001,
          "velocity": 0.5826771653543307,
          "duration": 1.4947916666666679
        },
        {
          "name": "D2",
          "midi": 38,
          "time": 24.08854166666668,
          "velocity": 0.5118110236220472,
          "duration": 1.4348958333333321
        },
        {
          "name": "C4",
          "midi": 60,
          "time": 24.08854166666668,
          "velocity": 0.5118110236220472,
          "duration": 1.3072916666666643
        },
        {
          "name": "D4",
          "midi": 62,
          "time": 24.08854166666668,
          "velocity": 0.48031496062992124,
          "duration": 1.2604166666666643
        },
        {
          "name": "D1",
          "midi": 26,
          "time": 24.09375000000001,
          "velocity": 0.4881889763779528,
          "duration": 1.1692708333333321
        },
        {
          "name": "A4",
          "midi": 69,
          "time": 25.47656250000001,
          "velocity": 0.5511811023622047,
          "duration": 0.5989583333333357
        },
        {
          "name": "G4",
          "midi": 67,
          "time": 25.86979166666668,
          "velocity": 0.3858267716535433,
          "duration": 1.1614583333333321
        },
        {
          "name": "D4",
          "midi": 62,
          "time": 25.86979166666668,
          "velocity": 0.3228346456692913,
          "duration": 1.0546875
        },
        {
          "name": "B3",
          "midi": 59,
          "time": 25.88541666666668,
          "velocity": 0.29133858267716534,
          "duration": 0.984375
        },
        {
          "name": "G2",
          "midi": 43,
          "time": 25.888020833333346,
          "velocity": 0.25196850393700787,
          "duration": 1.1145833333333321
        },
        {
          "name": "G1",
          "midi": 31,
          "time": 25.888020833333346,
          "velocity": 0.30708661417322836,
          "duration": 0.9973958333333321
        },
        {
          "name": "D#5",
          "midi": 75,
          "time": 27.97916666666668,
          "velocity": 0.36220472440944884,
          "duration": 1.0260416666666607
        },
        {
          "name": "D#4",
          "midi": 63,
          "time": 28.00000000000001,
          "velocity": 0.2047244094488189,
          "duration": 0.7343749999999964
        },
        {
          "name": "C3",
          "midi": 48,
          "time": 28.013020833333343,
          "velocity": 0.2283464566929134,
          "duration": 0.7604166666666643
        },
        {
          "name": "C2",
          "midi": 36,
          "time": 28.013020833333343,
          "velocity": 0.2440944881889764,
          "duration": 0.6692708333333321
        },
        {
          "name": "G4",
          "midi": 67,
          "time": 28.018229166666675,
          "velocity": 0.3228346456692913,
          "duration": 0.8151041666666643
        },
        {
          "name": "D#5",
          "midi": 75,
          "time": 29.296875000000007,
          "velocity": 0.4881889763779528,
          "duration": 0.8932291666666679
        },
        {
          "name": "G#4",
          "midi": 68,
          "time": 29.312500000000007,
          "velocity": 0.36220472440944884,
          "duration": 0.8619791666666679
        },
        {
          "name": "C4",
          "midi": 60,
          "time": 29.330729166666675,
          "velocity": 0.3543307086614173,
          "duration": 1.0052083333333357
        },
        {
          "name": "D#4",
          "midi": 63,
          "time": 29.335937500000007,
          "velocity": 0.2204724409448819,
          "duration": 0.8151041666666679
        },
        {
          "name": "C3",
          "midi": 48,
          "time": 29.351562500000007,
          "velocity": 0.3779527559055118,
          "duration": 0.9505208333333357
        },
        {
          "name": "G#4",
          "midi": 68,
          "time": 30.552083333333343,
          "velocity": 0.5196850393700787,
          "duration": 0.9999999999999964
        },
        {
          "name": "D5",
          "midi": 74,
          "time": 30.557291666666675,
          "velocity": 0.5354330708661418,
          "duration": 1.0052083333333321
        },
        {
          "name": "D4",
          "midi": 62,
          "time": 30.565104166666675,
          "velocity": 0.2755905511811024,
          "duration": 1.03125
        },
        {
          "name": "B3",
          "midi": 59,
          "time": 30.593750000000007,
          "velocity": 0.28346456692913385,
          "duration": 0.921875
        },
        {
          "name": "B2",
          "midi": 47,
          "time": 30.59895833333334,
          "velocity": 0.33858267716535434,
          "duration": 1.328125
        },
        {
          "name": "F#4",
          "midi": 66,
          "time": 31.572916666666675,
          "velocity": 0.41732283464566927,
          "duration": 0.13802083333333215
        },
        {
          "name": "D5",
          "midi": 74,
          "time": 31.898437500000007,
          "velocity": 0.49606299212598426,
          "duration": 1.179687499999993
        },
        {
          "name": "G4",
          "midi": 67,
          "time": 31.91927083333334,
          "velocity": 0.3858267716535433,
          "duration": 1.0885416666666607
        },
        {
          "name": "A#3",
          "midi": 58,
          "time": 31.921875000000007,
          "velocity": 0.4094488188976378,
          "duration": 1.2239583333333286
        },
        {
          "name": "A#2",
          "midi": 46,
          "time": 31.92708333333334,
          "velocity": 0.4409448818897638,
          "duration": 1.4713541666666607
        },
        {
          "name": "D4",
          "midi": 62,
          "time": 31.93229166666667,
          "velocity": 0.29133858267716534,
          "duration": 1.0442708333333286
        },
        {
          "name": "C5",
          "midi": 72,
          "time": 33.364583333333336,
          "velocity": 0.6771653543307087,
          "duration": 1.453125
        },
        {
          "name": "C4",
          "midi": 60,
          "time": 33.390625,
          "velocity": 0.3464566929133858,
          "duration": 1.0286458333333357
        },
        {
          "name": "G4",
          "midi": 67,
          "time": 33.403645833333336,
          "velocity": 0.41732283464566927,
          "duration": 0.9192708333333357
        },
        {
          "name": "A3",
          "midi": 57,
          "time": 33.4140625,
          "velocity": 0.31496062992125984,
          "duration": 1.0130208333333357
        },
        {
          "name": "A2",
          "midi": 45,
          "time": 33.427083333333336,
          "velocity": 0.25196850393700787,
          "duration": 1.2630208333333357
        },
        {
          "name": "D5",
          "midi": 74,
          "time": 34.68229166666667,
          "velocity": 0.6377952755905512,
          "duration": 0.9036458333333286
        },
        {
          "name": "F#4",
          "midi": 66,
          "time": 34.69010416666667,
          "velocity": 0.3779527559055118,
          "duration": 0.9531249999999929
        },
        {
          "name": "G#3",
          "midi": 56,
          "time": 34.70312500000001,
          "velocity": 0.2992125984251969,
          "duration": 1.054687499999993
        },
        {
          "name": "G#2",
          "midi": 44,
          "time": 34.70312500000001,
          "velocity": 0.2283464566929134,
          "duration": 1.3932291666666572
        },
        {
          "name": "C4",
          "midi": 60,
          "time": 34.71354166666667,
          "velocity": 0.3937007874015748,
          "duration": 0.7343749999999929
        },
        {
          "name": "D4",
          "midi": 62,
          "time": 34.716145833333336,
          "velocity": 0.3543307086614173,
          "duration": 0.7552083333333286
        },
        {
          "name": "B4",
          "midi": 71,
          "time": 36.0859375,
          "velocity": 0.4645669291338583,
          "duration": 0.8020833333333286
        },
        {
          "name": "G4",
          "midi": 67,
          "time": 36.111979166666664,
          "velocity": 0.36220472440944884,
          "duration": 0.8151041666666643
        },
        {
          "name": "D4",
          "midi": 62,
          "time": 36.11458333333333,
          "velocity": 0.16535433070866143,
          "duration": 0.9244791666666643
        },
        {
          "name": "G2",
          "midi": 43,
          "time": 36.14843749999999,
          "velocity": 0.16535433070866143,
          "duration": 1.3229166666666714
        },
        {
          "name": "G3",
          "midi": 55,
          "time": 36.15624999999999,
          "velocity": 0.13385826771653545,
          "duration": 1.0833333333333357
        },
        {
          "name": "A4",
          "midi": 69,
          "time": 37.20572916666666,
          "velocity": 0.4094488188976378,
          "duration": 0.4453125000000071
        },
        {
          "name": "C4",
          "midi": 60,
          "time": 37.21093749999999,
          "velocity": 0.30708661417322836,
          "duration": 0.0911458333333357
        },
        {
          "name": "G4",
          "midi": 67,
          "time": 37.58333333333333,
          "velocity": 0.3543307086614173,
          "duration": 0.8541666666666714
        },
        {
          "name": "B3",
          "midi": 59,
          "time": 37.588541666666664,
          "velocity": 0.2047244094488189,
          "duration": 0.7526041666666714
        },
        {
          "name": "D4",
          "midi": 62,
          "time": 37.596354166666664,
          "velocity": 0.2440944881889764,
          "duration": 0.8307291666666714
        },
        {
          "name": "F3",
          "midi": 53,
          "time": 37.604166666666664,
          "velocity": 0.1889763779527559,
          "duration": 0.7760416666666714
        },
        {
          "name": "F2",
          "midi": 41,
          "time": 37.635416666666664,
          "velocity": 0.23622047244094488,
          "duration": 0.8020833333333357
        },
        {
          "name": "C5",
          "midi": 72,
          "time": 39.307291666666664,
          "velocity": 0.5669291338582677,
          "duration": 0.9322916666666643
        },
        {
          "name": "G4",
          "midi": 67,
          "time": 39.31770833333333,
          "velocity": 0.3858267716535433,
          "duration": 0.9427083333333357
        },
        {
          "name": "D#3",
          "midi": 51,
          "time": 39.32552083333333,
          "velocity": 0.25984251968503935,
          "duration": 1.0833333333333357
        },
        {
          "name": "C4",
          "midi": 60,
          "time": 39.330729166666664,
          "velocity": 0.2677165354330709,
          "duration": 0.7421875
        },
        {
          "name": "D#2",
          "midi": 39,
          "time": 39.3359375,
          "velocity": 0.2204724409448819,
          "duration": 1.0885416666666643
        },
        {
          "name": "G#4",
          "midi": 68,
          "time": 40.65364583333333,
          "velocity": 0.5196850393700787,
          "duration": 1.2630208333333357
        },
        {
          "name": "C4",
          "midi": 60,
          "time": 40.674479166666664,
          "velocity": 0.3858267716535433,
          "duration": 0.8671875
        },
        {
          "name": "F3",
          "midi": 53,
          "time": 40.674479166666664,
          "velocity": 0.36220472440944884,
          "duration": 0.8411458333333357
        },
        {
          "name": "G#3",
          "midi": 56,
          "time": 40.67708333333333,
          "velocity": 0.33858267716535434,
          "duration": 0.8854166666666714
        },
        {
          "name": "F2",
          "midi": 41,
          "time": 40.682291666666664,
          "velocity": 0.33070866141732286,
          "duration": 0.9609375
        },
        {
          "name": "G4",
          "midi": 67,
          "time": 42.010416666666664,
          "velocity": 0.5511811023622047,
          "duration": 1.046875
        },
        {
          "name": "D4",
          "midi": 62,
          "time": 42.03645833333333,
          "velocity": 0.3228346456692913,
          "duration": 1.3697916666666714
        },
        {
          "name": "B2",
          "midi": 47,
          "time": 42.041666666666664,
          "velocity": 0.23622047244094488,
          "duration": 1.3151041666666643
        },
        {
          "name": "G3",
          "midi": 55,
          "time": 42.041666666666664,
          "velocity": 0.31496062992125984,
          "duration": 1.3046875
        },
        {
          "name": "B1",
          "midi": 35,
          "time": 42.05208333333333,
          "velocity": 0.25196850393700787,
          "duration": 1.3098958333333357
        },
        {
          "name": "F4",
          "midi": 65,
          "time": 43.25,
          "velocity": 0.47244094488188976,
          "duration": 0.2135416666666643
        },
        {
          "name": "D#4",
          "midi": 63,
          "time": 43.625,
          "velocity": 0.3858267716535433,
          "duration": 1.156249999999993
        },
        {
          "name": "C2",
          "midi": 36,
          "time": 43.6484375,
          "velocity": 0.30708661417322836,
          "duration": 1.2317708333333286
        },
        {
          "name": "C3",
          "midi": 48,
          "time": 43.651041666666664,
          "velocity": 0.28346456692913385,
          "duration": 0.8541666666666643
        },
        {
          "name": "C4",
          "midi": 60,
          "time": 43.65364583333333,
          "velocity": 0.36220472440944884,
          "duration": 0.8463541666666643
        },
        {
          "name": "G3",
          "midi": 55,
          "time": 43.66406249999999,
          "velocity": 0.28346456692913385,
          "duration": 0.7734375
        },
        {
          "name": "D#4",
          "midi": 63,
          "time": 45.24999999999999,
          "velocity": 0.3937007874015748,
          "duration": 1.085937499999993
        },
        {
          "name": "G#3",
          "midi": 56,
          "time": 45.26041666666666,
          "velocity": 0.33858267716535434,
          "duration": 0.9036458333333286
        },
        {
          "name": "G#1",
          "midi": 32,
          "time": 45.26822916666666,
          "velocity": 0.33070866141732286,
          "duration": 1.1979166666666643
        },
        {
          "name": "G#2",
          "midi": 44,
          "time": 45.27083333333332,
          "velocity": 0.23622047244094488,
          "duration": 0.8046875
        },
        {
          "name": "D#3",
          "midi": 51,
          "time": 45.27083333333332,
          "velocity": 0.31496062992125984,
          "duration": 0.84375
        },
        {
          "name": "C4",
          "midi": 60,
          "time": 45.27604166666666,
          "velocity": 0.3937007874015748,
          "duration": 0.8932291666666643
        },
        {
          "name": "F4",
          "midi": 65,
          "time": 46.65104166666666,
          "velocity": 0.4094488188976378,
          "duration": 1.1510416666666643
        },
        {
          "name": "C#4",
          "midi": 61,
          "time": 46.65885416666666,
          "velocity": 0.3464566929133858,
          "duration": 1.4765625
        },
        {
          "name": "G#3",
          "midi": 56,
          "time": 46.66406249999999,
          "velocity": 0.3937007874015748,
          "duration": 1.1432291666666643
        },
        {
          "name": "F3",
          "midi": 53,
          "time": 46.67447916666666,
          "velocity": 0.2992125984251969,
          "duration": 0.8203124999999929
        },
        {
          "name": "C#2",
          "midi": 37,
          "time": 46.69270833333332,
          "velocity": 0.3464566929133858,
          "duration": 1.0104166666666643
        },
        {
          "name": "C#1",
          "midi": 25,
          "time": 46.695312499999986,
          "velocity": 0.41732283464566927,
          "duration": 1.0130208333333357
        },
        {
          "name": "D#4",
          "midi": 63,
          "time": 48.08854166666666,
          "velocity": 0.5118110236220472,
          "duration": 1.34375
        },
        {
          "name": "B3",
          "midi": 59,
          "time": 48.12499999999999,
          "velocity": 0.33070866141732286,
          "duration": 1.3854166666666643
        },
        {
          "name": "F3",
          "midi": 53,
          "time": 48.13020833333333,
          "velocity": 0.2283464566929134,
          "duration": 1.289062499999993
        },
        {
          "name": "G2",
          "midi": 43,
          "time": 48.13020833333333,
          "velocity": 0.33070866141732286,
          "duration": 1.2057291666666572
        },
        {
          "name": "G1",
          "midi": 31,
          "time": 48.13281249999999,
          "velocity": 0.4251968503937008,
          "duration": 1.9296875
        },
        {
          "name": "G3",
          "midi": 55,
          "time": 48.13541666666666,
          "velocity": 0.29133858267716534,
          "duration": 1.2473958333333286
        },
        {
          "name": "D4",
          "midi": 62,
          "time": 49.66666666666666,
          "velocity": 0.4015748031496063,
          "duration": 0.6354166666666714
        },
        {
          "name": "C4",
          "midi": 60,
          "time": 50.27343749999999,
          "velocity": 0.33858267716535434,
          "duration": 1.0104166666666643
        },
        {
          "name": "D#3",
          "midi": 51,
          "time": 50.28124999999999,
          "velocity": 0.23622047244094488,
          "duration": 0.9192708333333286
        },
        {
          "name": "G3",
          "midi": 55,
          "time": 50.31249999999999,
          "velocity": 0.28346456692913385,
          "duration": 0.9244791666666643
        },
        {
          "name": "C2",
          "midi": 36,
          "time": 50.32291666666666,
          "velocity": 0.2440944881889764,
          "duration": 1.1223958333333286
        },
        {
          "name": "C1",
          "midi": 24,
          "time": 50.33854166666666,
          "velocity": 0.2440944881889764,
          "duration": 0.9947916666666643
        },
        {
          "name": "D#5",
          "midi": 75,
          "time": 52.86458333333332,
          "velocity": 0.28346456692913385,
          "duration": 0.9270833333333428
        },
        {
          "name": "G4",
          "midi": 67,
          "time": 52.91145833333332,
          "velocity": 0.18110236220472442,
          "duration": 0.6458333333333357
        },
        {
          "name": "D#4",
          "midi": 63,
          "time": 52.91145833333332,
          "velocity": 0.07874015748031496,
          "duration": 0.6510416666666714
        },
        {
          "name": "C3",
          "midi": 48,
          "time": 52.92447916666666,
          "velocity": 0.15748031496062992,
          "duration": 0.7135416666666714
        },
        {
          "name": "C2",
          "midi": 36,
          "time": 52.93229166666666,
          "velocity": 0.1732283464566929,
          "duration": 0.6119791666666643
        },
        {
          "name": "D#5",
          "midi": 75,
          "time": 54.27083333333333,
          "velocity": 0.33070866141732286,
          "duration": 0.9010416666666714
        },
        {
          "name": "G#4",
          "midi": 68,
          "time": 54.299479166666664,
          "velocity": 0.28346456692913385,
          "duration": 0.8307291666666714
        },
        {
          "name": "D#4",
          "midi": 63,
          "time": 54.31770833333333,
          "velocity": 0.15748031496062992,
          "duration": 0.7968750000000071
        },
        {
          "name": "C4",
          "midi": 60,
          "time": 54.32552083333333,
          "velocity": 0.14960629921259844,
          "duration": 0.9140625000000071
        },
        {
          "name": "C3",
          "midi": 48,
          "time": 54.35677083333333,
          "velocity": 0.10236220472440945,
          "duration": 0.8593750000000071
        },
        {
          "name": "D5",
          "midi": 74,
          "time": 55.6484375,
          "velocity": 0.29133858267716534,
          "duration": 1.2317708333333286
        },
        {
          "name": "G#4",
          "midi": 68,
          "time": 55.65625,
          "velocity": 0.28346456692913385,
          "duration": 0.8385416666666643
        },
        {
          "name": "D4",
          "midi": 62,
          "time": 55.682291666666664,
          "velocity": 0.14173228346456693,
          "duration": 1.1953125
        },
        {
          "name": "B3",
          "midi": 59,
          "time": 55.6953125,
          "velocity": 0.1968503937007874,
          "duration": 0.8463541666666643
        },
        {
          "name": "B2",
          "midi": 47,
          "time": 55.697916666666664,
          "velocity": 0.18110236220472442,
          "duration": 1.1536458333333357
        },
        {
          "name": "F#4",
          "midi": 66,
          "time": 56.830729166666664,
          "velocity": 0.31496062992125984,
          "duration": 0.1171875
        },
        {
          "name": "D5",
          "midi": 74,
          "time": 57.203125,
          "velocity": 0.3228346456692913,
          "duration": 1.0416666666666643
        },
        {
          "name": "A#3",
          "midi": 58,
          "time": 57.213541666666664,
          "velocity": 0.2755905511811024,
          "duration": 0.9166666666666714
        },
        {
          "name": "A#2",
          "midi": 46,
          "time": 57.21875,
          "velocity": 0.2755905511811024,
          "duration": 0.9375
        },
        {
          "name": "D4",
          "midi": 62,
          "time": 57.223958333333336,
          "velocity": 0.18110236220472442,
          "duration": 0.7890625
        },
        {
          "name": "G4",
          "midi": 67,
          "time": 57.231770833333336,
          "velocity": 0.29133858267716534,
          "duration": 0.8802083333333357
        },
        {
          "name": "C5",
          "midi": 72,
          "time": 58.854166666666664,
          "velocity": 0.4015748031496063,
          "duration": 1.5885416666666643
        },
        {
          "name": "C4",
          "midi": 60,
          "time": 58.88020833333333,
          "velocity": 0.2047244094488189,
          "duration": 1.0052083333333286
        },
        {
          "name": "G4",
          "midi": 67,
          "time": 58.885416666666664,
          "velocity": 0.31496062992125984,
          "duration": 0.9010416666666643
        },
        {
          "name": "A3",
          "midi": 57,
          "time": 58.90364583333333,
          "velocity": 0.23622047244094488,
          "duration": 0.8489583333333357
        },
        {
          "name": "A2",
          "midi": 45,
          "time": 58.90624999999999,
          "velocity": 0.2755905511811024,
          "duration": 0.96875
        },
        {
          "name": "F#4",
          "midi": 66,
          "time": 60.29687499999999,
          "velocity": 0.2047244094488189,
          "duration": 1.109374999999993
        },
        {
          "name": "D5",
          "midi": 74,
          "time": 60.30208333333333,
          "velocity": 0.4251968503937008,
          "duration": 0.8697916666666572
        },
        {
          "name": "G#3",
          "midi": 56,
          "time": 60.307291666666664,
          "velocity": 0.2755905511811024,
          "duration": 0.9166666666666572
        },
        {
          "name": "D4",
          "midi": 62,
          "time": 60.32552083333333,
          "velocity": 0.28346456692913385,
          "duration": 0.7760416666666572
        },
        {
          "name": "C4",
          "midi": 60,
          "time": 60.32552083333333,
          "velocity": 0.2992125984251969,
          "duration": 0.7499999999999929
        },
        {
          "name": "G#2",
          "midi": 44,
          "time": 60.32812499999999,
          "velocity": 0.2047244094488189,
          "duration": 1.046874999999993
        },
        {
          "name": "B4",
          "midi": 71,
          "time": 61.757812499999986,
          "velocity": 0.3543307086614173,
          "duration": 0.7864583333333286
        },
        {
          "name": "D4",
          "midi": 62,
          "time": 61.789062499999986,
          "velocity": 0.1968503937007874,
          "duration": 0.7473958333333286
        },
        {
          "name": "G2",
          "midi": 43,
          "time": 61.79947916666665,
          "velocity": 0.2125984251968504,
          "duration": 1.1458333333333357
        },
        {
          "name": "G4",
          "midi": 67,
          "time": 61.802083333333314,
          "velocity": 0.2047244094488189,
          "duration": 0.7786458333333357
        },
        {
          "name": "G3",
          "midi": 55,
          "time": 61.802083333333314,
          "velocity": 0.16535433070866143,
          "duration": 1.187500000000007
        },
        {
          "name": "A4",
          "midi": 69,
          "time": 62.999999999999986,
          "velocity": 0.28346456692913385,
          "duration": 0.5208333333333428
        },
        {
          "name": "C4",
          "midi": 60,
          "time": 63.007812499999986,
          "velocity": 0.2283464566929134,
          "duration": 0.140625
        },
        {
          "name": "G4",
          "midi": 67,
          "time": 63.398437499999986,
          "velocity": 0.3700787401574803,
          "duration": 0.7526041666666714
        },
        {
          "name": "B3",
          "midi": 59,
          "time": 63.421874999999986,
          "velocity": 0.1889763779527559,
          "duration": 0.734375
        },
        {
          "name": "D4",
          "midi": 62,
          "time": 63.42708333333332,
          "velocity": 0.14173228346456693,
          "duration": 0.8333333333333215
        },
        {
          "name": "F3",
          "midi": 53,
          "time": 63.43229166666666,
          "velocity": 0.1732283464566929,
          "duration": 0.7447916666666572
        },
        {
          "name": "F2",
          "midi": 41,
          "time": 63.43749999999999,
          "velocity": 0.15748031496062992,
          "duration": 0.7838541666666501
        },
        {
          "name": "C5",
          "midi": 72,
          "time": 65.09374999999997,
          "velocity": 0.6062992125984252,
          "duration": 0.9999999999999858
        },
        {
          "name": "C4",
          "midi": 60,
          "time": 65.0989583333333,
          "velocity": 0.3779527559055118,
          "duration": 0.9218749999999858
        },
        {
          "name": "D#3",
          "midi": 51,
          "time": 65.1067708333333,
          "velocity": 0.2992125984251969,
          "duration": 1.1536458333333286
        },
        {
          "name": "G4",
          "midi": 67,
          "time": 65.11979166666663,
          "velocity": 0.3700787401574803,
          "duration": 1.0677083333333286
        },
        {
          "name": "D#2",
          "midi": 39,
          "time": 65.12499999999996,
          "velocity": 0.25984251968503935,
          "duration": 1.125
        },
        {
          "name": "G#4",
          "midi": 68,
          "time": 66.7239583333333,
          "velocity": 0.5039370078740157,
          "duration": 1.25
        },
        {
          "name": "G#3",
          "midi": 56,
          "time": 66.74479166666663,
          "velocity": 0.3779527559055118,
          "duration": 1.1484375
        },
        {
          "name": "C4",
          "midi": 60,
          "time": 66.74479166666663,
          "velocity": 0.3700787401574803,
          "duration": 1.125
        },
        {
          "name": "F3",
          "midi": 53,
          "time": 66.74479166666663,
          "velocity": 0.31496062992125984,
          "duration": 1.0442708333333286
        },
        {
          "name": "F2",
          "midi": 41,
          "time": 66.74999999999996,
          "velocity": 0.3228346456692913,
          "duration": 1.2239583333333428
        },
        {
          "name": "G4",
          "midi": 67,
          "time": 68.20312499999997,
          "velocity": 0.6299212598425197,
          "duration": 0.9114583333333286
        },
        {
          "name": "G3",
          "midi": 55,
          "time": 68.21354166666664,
          "velocity": 0.4015748031496063,
          "duration": 0.8958333333333286
        },
        {
          "name": "D4",
          "midi": 62,
          "time": 68.22395833333331,
          "velocity": 0.4330708661417323,
          "duration": 1.1614583333333144
        },
        {
          "name": "B2",
          "midi": 47,
          "time": 68.24479166666664,
          "velocity": 0.1889763779527559,
          "duration": 1.5937499999999858
        },
        {
          "name": "B1",
          "midi": 35,
          "time": 68.24479166666664,
          "velocity": 0.2283464566929134,
          "duration": 1.5104166666666572
        },
        {
          "name": "F4",
          "midi": 65,
          "time": 69.61979166666663,
          "velocity": 0.5433070866141733,
          "duration": 0.5130208333333144
        },
        {
          "name": "D#4",
          "midi": 63,
          "time": 70.08593749999996,
          "velocity": 0.5511811023622047,
          "duration": 1.0078124999999858
        },
        {
          "name": "C2",
          "midi": 36,
          "time": 70.10677083333329,
          "velocity": 0.3937007874015748,
          "duration": 1.0078124999999858
        },
        {
          "name": "C4",
          "midi": 60,
          "time": 70.11458333333329,
          "velocity": 0.41732283464566927,
          "duration": 0.9609374999999858
        },
        {
          "name": "G3",
          "midi": 55,
          "time": 70.11458333333329,
          "velocity": 0.3464566929133858,
          "duration": 0.8854166666666572
        },
        {
          "name": "C3",
          "midi": 48,
          "time": 70.11979166666661,
          "velocity": 0.3543307086614173,
          "duration": 0.8463541666666572
        },
        {
          "name": "G#3",
          "midi": 56,
          "time": 71.83333333333327,
          "velocity": 0.5196850393700787,
          "duration": 0.890625
        },
        {
          "name": "D#3",
          "midi": 51,
          "time": 71.83593749999994,
          "velocity": 0.5118110236220472,
          "duration": 0.9375
        },
        {
          "name": "D#4",
          "midi": 63,
          "time": 71.83593749999994,
          "velocity": 0.6220472440944882,
          "duration": 1.4036458333333286
        },
        {
          "name": "G#2",
          "midi": 44,
          "time": 71.84895833333327,
          "velocity": 0.47244094488188976,
          "duration": 0.96875
        },
        {
          "name": "G#1",
          "midi": 32,
          "time": 71.85937499999994,
          "velocity": 0.4881889763779528,
          "duration": 1.5390625
        },
        {
          "name": "C4",
          "midi": 60,
          "time": 71.85937499999994,
          "velocity": 0.5669291338582677,
          "duration": 1.3385416666666572
        },
        {
          "name": "F3",
          "midi": 53,
          "time": 73.55729166666661,
          "velocity": 0.6299212598425197,
          "duration": 1.1197916666666572
        },
        {
          "name": "C#4",
          "midi": 61,
          "time": 73.55729166666661,
          "velocity": 0.5511811023622047,
          "duration": 1.2864583333333144
        },
        {
          "name": "G#3",
          "midi": 56,
          "time": 73.55729166666661,
          "velocity": 0.5984251968503937,
          "duration": 1.2499999999999858
        },
        {
          "name": "F4",
          "midi": 65,
          "time": 73.55729166666661,
          "velocity": 0.7007874015748031,
          "duration": 1.2187499999999858
        },
        {
          "name": "C#2",
          "midi": 37,
          "time": 73.56249999999994,
          "velocity": 0.5433070866141733,
          "duration": 1.2578124999999858
        },
        {
          "name": "C#1",
          "midi": 25,
          "time": 73.57031249999994,
          "velocity": 0.5905511811023622,
          "duration": 1.1015625
        },
        {
          "name": "D#4",
          "midi": 63,
          "time": 75.2526041666666,
          "velocity": 0.6929133858267716,
          "duration": 1.8515625
        },
        {
          "name": "F3",
          "midi": 53,
          "time": 75.2682291666666,
          "velocity": 0.6535433070866141,
          "duration": 2.0729166666666714
        },
        {
          "name": "G3",
          "midi": 55,
          "time": 75.2682291666666,
          "velocity": 0.5669291338582677,
          "duration": 2.0546875
        },
        {
          "name": "B3",
          "midi": 59,
          "time": 75.27083333333327,
          "velocity": 0.6141732283464567,
          "duration": 2.1067708333333286
        },
        {
          "name": "G2",
          "midi": 43,
          "time": 75.2760416666666,
          "velocity": 0.5984251968503937,
          "duration": 2.03125
        },
        {
          "name": "G1",
          "midi": 31,
          "time": 75.27864583333327,
          "velocity": 0.6535433070866141,
          "duration": 2.4505208333333286
        },
        {
          "name": "D4",
          "midi": 62,
          "time": 77.1744791666666,
          "velocity": 0.6141732283464567,
          "duration": 0.8098958333333286
        },
        {
          "name": "D#3",
          "midi": 51,
          "time": 77.7447916666666,
          "velocity": 0.6141732283464567,
          "duration": 1.4895833333333428
        },
        {
          "name": "C4",
          "midi": 60,
          "time": 77.7447916666666,
          "velocity": 0.6850393700787402,
          "duration": 1.6197916666666714
        },
        {
          "name": "G3",
          "midi": 55,
          "time": 77.75520833333327,
          "velocity": 0.5984251968503937,
          "duration": 1.5338541666666714
        },
        {
          "name": "C2",
          "midi": 36,
          "time": 77.7604166666666,
          "velocity": 0.7007874015748031,
          "duration": 1.5416666666666714
        },
        {
          "name": "C1",
          "midi": 24,
          "time": 77.7604166666666,
          "velocity": 0.7007874015748031,
          "duration": 1.4843750000000142
        },
        {
          "name": "C5",
          "midi": 72,
          "time": 80.19531249999994,
          "velocity": 0.6456692913385826,
          "duration": 6.419270833333329
        },
        {
          "name": "C4",
          "midi": 60,
          "time": 80.19791666666661,
          "velocity": 0.5511811023622047,
          "duration": 6.408854166666657
        },
        {
          "name": "D#4",
          "midi": 63,
          "time": 80.20312499999994,
          "velocity": 0.5354330708661418,
          "duration": 6.440104166666671
        },
        {
          "name": "G4",
          "midi": 67,
          "time": 80.21093749999994,
          "velocity": 0.5826771653543307,
          "duration": 6.3828125
        },
        {
          "name": "C3",
          "midi": 48,
          "time": 80.21614583333327,
          "velocity": 0.5669291338582677,
          "duration": 6.523437500000014
        },
        {
          "name": "G3",
          "midi": 55,
          "time": 80.22656249999994,
          "velocity": 0.4566929133858268,
          "duration": 6.3984375
        }
      ],
      "controlChanges": {
        "7": [
          {
            "number": 7,
            "time": 1.5,
            "value": 1
          }
        ],
        "64": [
          {
            "number": 64,
            "time": 2,
            "value": 1
          },
          {
            "number": 64,
            "time": 3.2369791666666665,
            "value": 0
          },
          {
            "number": 64,
            "time": 3.700520833333333,
            "value": 1
          },
          {
            "number": 64,
            "time": 4.726562499999999,
            "value": 0
          },
          {
            "number": 64,
            "time": 5.190104166666666,
            "value": 1
          },
          {
            "number": 64,
            "time": 6.085937499999999,
            "value": 0
          },
          {
            "number": 64,
            "time": 6.645833333333332,
            "value": 1
          },
          {
            "number": 64,
            "time": 7.783854166666666,
            "value": 0
          },
          {
            "number": 64,
            "time": 8.328125,
            "value": 1
          },
          {
            "number": 64,
            "time": 9.513020833333336,
            "value": 0
          },
          {
            "number": 64,
            "time": 10.04166666666667,
            "value": 1
          },
          {
            "number": 64,
            "time": 10.953125000000004,
            "value": 0
          },
          {
            "number": 64,
            "time": 11.419270833333337,
            "value": 1
          },
          {
            "number": 64,
            "time": 12.427083333333337,
            "value": 0
          },
          {
            "number": 64,
            "time": 12.924479166666671,
            "value": 1
          },
          {
            "number": 64,
            "time": 14.125000000000002,
            "value": 0
          },
          {
            "number": 64,
            "time": 14.682291666666668,
            "value": 1
          },
          {
            "number": 64,
            "time": 15.91666666666667,
            "value": 0
          },
          {
            "number": 64,
            "time": 16.348958333333336,
            "value": 1
          },
          {
            "number": 64,
            "time": 17.18229166666667,
            "value": 0
          },
          {
            "number": 64,
            "time": 17.820312500000004,
            "value": 1
          },
          {
            "number": 64,
            "time": 18.54166666666667,
            "value": 0
          },
          {
            "number": 64,
            "time": 19.00520833333334,
            "value": 1
          },
          {
            "number": 64,
            "time": 20.04687500000001,
            "value": 0
          },
          {
            "number": 64,
            "time": 20.606770833333343,
            "value": 1
          },
          {
            "number": 64,
            "time": 21.598958333333343,
            "value": 0
          },
          {
            "number": 64,
            "time": 22.00000000000001,
            "value": 1
          },
          {
            "number": 64,
            "time": 22.87760416666668,
            "value": 0
          },
          {
            "number": 64,
            "time": 23.29687500000001,
            "value": 1
          },
          {
            "number": 64,
            "time": 24.27343750000001,
            "value": 0
          },
          {
            "number": 64,
            "time": 24.864583333333343,
            "value": 1
          },
          {
            "number": 64,
            "time": 25.953125000000014,
            "value": 0
          },
          {
            "number": 64,
            "time": 26.770833333333346,
            "value": 1
          },
          {
            "number": 64,
            "time": 28.065104166666675,
            "value": 0
          },
          {
            "number": 64,
            "time": 28.513020833333343,
            "value": 1
          },
          {
            "number": 64,
            "time": 29.619791666666675,
            "value": 0
          },
          {
            "number": 64,
            "time": 29.989583333333343,
            "value": 1
          },
          {
            "number": 64,
            "time": 30.789062500000007,
            "value": 0
          },
          {
            "number": 64,
            "time": 31.34895833333334,
            "value": 1
          },
          {
            "number": 64,
            "time": 32.036458333333336,
            "value": 0
          },
          {
            "number": 64,
            "time": 32.708333333333336,
            "value": 1
          },
          {
            "number": 64,
            "time": 33.653645833333336,
            "value": 0
          },
          {
            "number": 64,
            "time": 34.067708333333336,
            "value": 1
          },
          {
            "number": 64,
            "time": 34.984375,
            "value": 0
          },
          {
            "number": 64,
            "time": 35.4140625,
            "value": 1
          },
          {
            "number": 64,
            "time": 36.34374999999999,
            "value": 0
          },
          {
            "number": 64,
            "time": 36.66406249999999,
            "value": 1
          },
          {
            "number": 64,
            "time": 37.815104166666664,
            "value": 0
          },
          {
            "number": 64,
            "time": 38.296875,
            "value": 1
          },
          {
            "number": 64,
            "time": 39.736979166666664,
            "value": 0
          },
          {
            "number": 64,
            "time": 40.026041666666664,
            "value": 1
          },
          {
            "number": 64,
            "time": 41.018229166666664,
            "value": 0
          },
          {
            "number": 64,
            "time": 41.401041666666664,
            "value": 1
          },
          {
            "number": 64,
            "time": 42.299479166666664,
            "value": 0
          },
          {
            "number": 64,
            "time": 42.744791666666664,
            "value": 1
          },
          {
            "number": 64,
            "time": 43.77083333333333,
            "value": 0
          },
          {
            "number": 64,
            "time": 44.39583333333333,
            "value": 1
          },
          {
            "number": 64,
            "time": 45.75520833333332,
            "value": 0
          },
          {
            "number": 64,
            "time": 45.99479166666666,
            "value": 1
          },
          {
            "number": 64,
            "time": 47.11458333333332,
            "value": 0
          },
          {
            "number": 64,
            "time": 47.453124999999986,
            "value": 1
          },
          {
            "number": 64,
            "time": 48.47916666666666,
            "value": 0
          },
          {
            "number": 64,
            "time": 49.00520833333332,
            "value": 1
          },
          {
            "number": 64,
            "time": 50.44531249999999,
            "value": 0
          },
          {
            "number": 64,
            "time": 51.05729166666666,
            "value": 1
          },
          {
            "number": 64,
            "time": 53.11979166666666,
            "value": 0
          },
          {
            "number": 64,
            "time": 53.42447916666666,
            "value": 1
          },
          {
            "number": 64,
            "time": 54.736979166666664,
            "value": 0
          },
          {
            "number": 64,
            "time": 54.9609375,
            "value": 1
          },
          {
            "number": 64,
            "time": 56.049479166666664,
            "value": 0
          },
          {
            "number": 64,
            "time": 56.3203125,
            "value": 1
          },
          {
            "number": 64,
            "time": 57.65104166666667,
            "value": 0
          },
          {
            "number": 64,
            "time": 57.98697916666667,
            "value": 1
          },
          {
            "number": 64,
            "time": 59.41145833333333,
            "value": 0
          },
          {
            "number": 64,
            "time": 59.651041666666664,
            "value": 1
          },
          {
            "number": 64,
            "time": 60.56249999999999,
            "value": 0
          },
          {
            "number": 64,
            "time": 60.94791666666666,
            "value": 1
          },
          {
            "number": 64,
            "time": 62.067708333333314,
            "value": 0
          },
          {
            "number": 64,
            "time": 62.45312499999998,
            "value": 1
          },
          {
            "number": 64,
            "time": 63.799479166666664,
            "value": 0
          },
          {
            "number": 64,
            "time": 64.11979166666666,
            "value": 1
          },
          {
            "number": 64,
            "time": 65.67187499999996,
            "value": 0
          },
          {
            "number": 64,
            "time": 65.92708333333329,
            "value": 1
          },
          {
            "number": 64,
            "time": 67.35156249999996,
            "value": 0
          },
          {
            "number": 64,
            "time": 67.72135416666663,
            "value": 1
          },
          {
            "number": 64,
            "time": 68.74479166666664,
            "value": 0
          },
          {
            "number": 64,
            "time": 69.06249999999997,
            "value": 1
          },
          {
            "number": 64,
            "time": 70.61979166666661,
            "value": 0
          },
          {
            "number": 64,
            "time": 70.92187499999994,
            "value": 1
          },
          {
            "number": 64,
            "time": 72.31249999999994,
            "value": 0
          },
          {
            "number": 64,
            "time": 72.58593749999994,
            "value": 1
          },
          {
            "number": 64,
            "time": 73.94791666666661,
            "value": 0
          },
          {
            "number": 64,
            "time": 74.24999999999994,
            "value": 1
          },
          {
            "number": 64,
            "time": 75.9166666666666,
            "value": 0
          },
          {
            "number": 64,
            "time": 76.66927083333327,
            "value": 1
          },
          {
            "number": 64,
            "time": 78.2682291666666,
            "value": 0
          },
          {
            "number": 64,
            "time": 78.98958333333327,
            "value": 1
          },
          {
            "number": 64,
            "time": 87.23437499999996,
            "value": 0
          }
        ]
      },
      "id": 1,
      "name": "A.PIANO 1",
      "instrumentNumber": 0,
      "instrument": "acoustic grand piano",
      "instrumentFamily": "piano",
      "channelNumber": 0,
      "isPercussion": false
    },
    {
      "startTime": 0,
      "duration": 0,
      "length": 0,
      "notes": [],
      "controlChanges": {},
      "id": 2,
      "name": "GS/RESET"
    }
  ]
}